<svg width="572.6" height="48.6" viewBox="0 0 572.6 48.6" xmlns="http://www.w3.org/2000/svg"><g id="svgGroup" stroke-linecap="round" fill-rule="evenodd" font-size="9pt" stroke="#ffffff" stroke-width="0.25mm" fill="#ffffff" style="stroke:#ffffff;stroke-width:0.25mm;fill:#ffffff"><path d="M 135.45 34.05 L 137.85 30.05 Q 139.65 31.55 141.9 32.5 Q 144.15 33.45 147.15 33.45 A 13.991 13.991 0 0 0 149.424 33.277 Q 151.464 32.94 152.85 31.95 A 5.14 5.14 0 0 0 154.248 30.497 Q 154.906 29.444 154.947 28.083 A 6.058 6.058 0 0 0 154.95 27.9 A 5.97 5.97 0 0 0 154.781 26.454 A 4.908 4.908 0 0 0 154.35 25.325 A 4.048 4.048 0 0 0 153.75 24.497 Q 153.11 23.801 152.025 23.125 A 16.052 16.052 0 0 0 150.788 22.436 Q 149.469 21.769 147.583 21.04 A 59.289 59.289 0 0 0 146.95 20.8 A 45.206 45.206 0 0 1 144.646 19.835 Q 143.517 19.322 142.58 18.806 A 19.748 19.748 0 0 1 141.2 17.975 A 10.966 10.966 0 0 1 139.655 16.751 Q 138.674 15.809 138.125 14.725 A 8.333 8.333 0 0 1 137.365 12.389 A 11.464 11.464 0 0 1 137.2 10.4 Q 137.2 7.9 138.575 5.875 A 8.589 8.589 0 0 1 140.802 3.656 A 11.693 11.693 0 0 1 142.625 2.625 A 12.779 12.779 0 0 1 145.575 1.707 Q 146.892 1.458 148.396 1.411 A 22.614 22.614 0 0 1 149.1 1.4 A 26.448 26.448 0 0 1 152.044 1.556 A 19.719 19.719 0 0 1 154.675 2.025 Q 157.15 2.65 159.5 3.8 L 157.75 7.85 Q 156.05 6.85 153.775 6.175 Q 151.5 5.5 149 5.5 A 13.593 13.593 0 0 0 146.985 5.64 Q 145.077 5.927 143.8 6.8 A 4.951 4.951 0 0 0 142.718 7.782 A 3.68 3.68 0 0 0 141.9 10.15 A 5.232 5.232 0 0 0 142.046 11.411 A 4.281 4.281 0 0 0 142.45 12.45 A 3.456 3.456 0 0 0 142.984 13.162 Q 143.584 13.791 144.625 14.4 Q 145.982 15.193 148.473 16.161 A 65.006 65.006 0 0 0 149.5 16.55 Q 153.4 18 155.675 19.6 Q 157.539 20.911 158.513 22.406 A 7.115 7.115 0 0 1 158.9 23.075 A 8.789 8.789 0 0 1 159.771 26.006 A 11.078 11.078 0 0 1 159.85 27.35 A 10.855 10.855 0 0 1 159.516 30.1 A 8.552 8.552 0 0 1 158.225 32.9 A 9.809 9.809 0 0 1 154.759 35.911 A 12.178 12.178 0 0 1 153.725 36.4 A 15.261 15.261 0 0 1 150.02 37.402 A 20.014 20.014 0 0 1 147.15 37.6 A 23.683 23.683 0 0 1 143.262 37.294 A 19.024 19.024 0 0 1 140.5 36.625 Q 137.5 35.65 135.45 34.05 Z M 194.75 46.4 L 196.4 42.5 A 10.281 10.281 0 0 0 198.308 43.687 A 12.368 12.368 0 0 0 199.2 44.075 A 8.452 8.452 0 0 0 200.794 44.513 Q 201.842 44.7 203.1 44.7 Q 206.65 44.7 208.675 42.825 A 5.676 5.676 0 0 0 210.128 40.578 Q 210.468 39.658 210.606 38.516 A 13.92 13.92 0 0 0 210.7 36.85 L 210.7 33.65 Q 209.885 34.628 208.489 35.523 A 15.703 15.703 0 0 1 207.825 35.925 A 7.953 7.953 0 0 1 205.234 36.842 A 10.795 10.795 0 0 1 203.35 37 Q 200.4 37 197.75 35.475 A 11.118 11.118 0 0 1 194.104 32.056 A 13.719 13.719 0 0 1 193.45 31 A 12.591 12.591 0 0 1 192.094 27.188 A 17.516 17.516 0 0 1 191.8 23.9 A 16.03 16.03 0 0 1 192.259 19.996 A 13.341 13.341 0 0 1 193.425 16.95 A 12.853 12.853 0 0 1 196.457 13.139 A 12.224 12.224 0 0 1 197.8 12.15 Q 200.55 10.4 203.85 10.4 Q 206.05 10.4 207.85 11.15 A 12.852 12.852 0 0 1 209.764 12.134 A 10.499 10.499 0 0 1 210.95 13 L 210.95 11 L 215.05 11 L 215.05 36.4 A 20.347 20.347 0 0 1 214.873 39.167 Q 214.672 40.628 214.243 41.847 A 10.082 10.082 0 0 1 213.55 43.4 Q 212.05 46.1 209.375 47.35 A 12.905 12.905 0 0 1 206.073 48.361 A 17.621 17.621 0 0 1 203.1 48.6 Q 200.8 48.6 198.625 48.05 Q 196.45 47.5 194.75 46.4 Z M 482.2 46.4 L 483.85 42.5 A 10.281 10.281 0 0 0 485.758 43.687 A 12.368 12.368 0 0 0 486.65 44.075 A 8.452 8.452 0 0 0 488.244 44.513 Q 489.292 44.7 490.55 44.7 Q 494.1 44.7 496.125 42.825 A 5.676 5.676 0 0 0 497.578 40.578 Q 497.918 39.658 498.056 38.516 A 13.92 13.92 0 0 0 498.15 36.85 L 498.15 33.65 Q 497.335 34.628 495.939 35.523 A 15.703 15.703 0 0 1 495.275 35.925 A 7.953 7.953 0 0 1 492.684 36.842 A 10.795 10.795 0 0 1 490.8 37 Q 487.85 37 485.2 35.475 A 11.118 11.118 0 0 1 481.554 32.056 A 13.719 13.719 0 0 1 480.9 31 A 12.591 12.591 0 0 1 479.544 27.188 A 17.516 17.516 0 0 1 479.25 23.9 A 16.03 16.03 0 0 1 479.709 19.996 A 13.341 13.341 0 0 1 480.875 16.95 A 12.853 12.853 0 0 1 483.907 13.139 A 12.224 12.224 0 0 1 485.25 12.15 Q 488 10.4 491.3 10.4 Q 493.5 10.4 495.3 11.15 A 12.852 12.852 0 0 1 497.214 12.134 A 10.499 10.499 0 0 1 498.4 13 L 498.4 11 L 502.5 11 L 502.5 36.4 A 20.347 20.347 0 0 1 502.323 39.167 Q 502.122 40.628 501.693 41.847 A 10.082 10.082 0 0 1 501 43.4 Q 499.5 46.1 496.825 47.35 A 12.905 12.905 0 0 1 493.523 48.361 A 17.621 17.621 0 0 1 490.55 48.6 Q 488.25 48.6 486.075 48.05 Q 483.9 47.5 482.2 46.4 Z M 69.1 27.9 L 69.1 11 L 73.6 11 L 73.6 27.3 A 11.491 11.491 0 0 0 73.727 29.067 Q 73.871 29.99 74.178 30.735 A 5.068 5.068 0 0 0 74.9 31.975 A 4.202 4.202 0 0 0 77.457 33.485 A 6.403 6.403 0 0 0 78.7 33.6 Q 80.75 33.6 82.675 32.775 Q 84.6 31.95 86.1 30.55 L 86.1 11 L 90.6 11 L 90.6 30.25 A 7.801 7.801 0 0 0 90.651 31.177 Q 90.817 32.558 91.525 33.075 Q 92.45 33.75 93.55 33.75 L 92.6 37.25 Q 87.95 37.25 86.85 33.55 Q 85.1 35.35 82.8 36.475 Q 80.5 37.6 77.85 37.6 Q 75.6 37.6 73.6 36.65 A 7.22 7.22 0 0 1 70.845 34.331 A 9.133 9.133 0 0 1 70.35 33.575 A 8.12 8.12 0 0 1 69.518 31.528 Q 69.257 30.543 69.159 29.372 A 17.686 17.686 0 0 1 69.1 27.9 Z M 222.55 27.9 L 222.55 11 L 227.05 11 L 227.05 27.3 A 11.491 11.491 0 0 0 227.177 29.067 Q 227.321 29.99 227.628 30.735 A 5.068 5.068 0 0 0 228.35 31.975 A 4.202 4.202 0 0 0 230.907 33.485 A 6.403 6.403 0 0 0 232.15 33.6 Q 234.2 33.6 236.125 32.775 Q 238.05 31.95 239.55 30.55 L 239.55 11 L 244.05 11 L 244.05 30.25 A 7.801 7.801 0 0 0 244.101 31.177 Q 244.267 32.558 244.975 33.075 Q 245.9 33.75 247 33.75 L 246.05 37.25 Q 241.4 37.25 240.3 33.55 Q 238.55 35.35 236.25 36.475 Q 233.95 37.6 231.3 37.6 Q 229.05 37.6 227.05 36.65 A 7.22 7.22 0 0 1 224.295 34.331 A 9.133 9.133 0 0 1 223.8 33.575 A 8.12 8.12 0 0 1 222.968 31.528 Q 222.707 30.543 222.609 29.372 A 17.686 17.686 0 0 1 222.55 27.9 Z M 409.85 37 L 405.35 37 L 405.35 11 L 409.7 11 L 409.7 15.35 Q 411.1 13.25 413.275 11.825 A 8.658 8.658 0 0 1 416.828 10.513 A 11.315 11.315 0 0 1 418.45 10.4 A 11.612 11.612 0 0 1 420.983 10.659 Q 423.53 11.228 425.025 13.05 Q 427.2 15.7 427.2 20.05 L 427.2 37 L 422.7 37 L 422.7 20.55 A 9.632 9.632 0 0 0 422.529 18.68 Q 422.224 17.139 421.375 16.05 A 4.29 4.29 0 0 0 418.237 14.373 A 6.031 6.031 0 0 0 417.7 14.35 A 6.561 6.561 0 0 0 414.275 15.332 A 8.677 8.677 0 0 0 413.35 15.975 Q 411.3 17.6 409.85 19.8 L 409.85 37 Z M 32.4 35.75 L 28.05 37.5 L 24.15 27.5 L 7.95 27.5 L 4.05 37.4 L 0 35.75 L 13.7 2 L 18.9 2 L 32.4 35.75 Z M 97.3 34.9 L 99.2 31.15 A 9.278 9.278 0 0 0 100.772 32.213 Q 101.549 32.635 102.475 32.975 A 12.036 12.036 0 0 0 106.281 33.694 A 13.732 13.732 0 0 0 106.7 33.7 Q 109.5 33.7 110.925 32.775 A 3.725 3.725 0 0 0 111.692 32.129 A 2.526 2.526 0 0 0 112.35 30.4 A 3.561 3.561 0 0 0 112.193 29.326 A 3.106 3.106 0 0 0 111.825 28.55 A 3.192 3.192 0 0 0 111.361 28.003 Q 110.819 27.484 109.9 26.975 A 14.231 14.231 0 0 0 108.903 26.478 Q 107.672 25.919 105.85 25.3 Q 103.388 24.457 101.756 23.397 A 9.667 9.667 0 0 1 100.375 22.325 A 5.662 5.662 0 0 1 98.728 19.327 A 8.397 8.397 0 0 1 98.55 17.55 A 6.06 6.06 0 0 1 100.524 13.042 A 8.731 8.731 0 0 1 101.175 12.475 A 8.883 8.883 0 0 1 104.193 10.952 Q 105.471 10.572 107.004 10.454 A 18.764 18.764 0 0 1 108.45 10.4 A 20.397 20.397 0 0 1 110.673 10.515 Q 111.827 10.642 112.835 10.908 A 12.603 12.603 0 0 1 112.9 10.925 A 19.385 19.385 0 0 1 114.967 11.603 A 15.555 15.555 0 0 1 116.4 12.25 L 115.15 15.95 A 12.264 12.264 0 0 0 113.316 15.067 A 15.096 15.096 0 0 0 112.075 14.65 A 12.512 12.512 0 0 0 109.833 14.226 A 15.919 15.919 0 0 0 108.25 14.15 Q 105.65 14.15 104.3 15.2 Q 103.404 15.897 103.102 16.683 A 2.265 2.265 0 0 0 102.95 17.5 A 2.46 2.46 0 0 0 103.698 19.276 A 3.541 3.541 0 0 0 104 19.55 Q 105.033 20.386 107.999 21.367 A 42.189 42.189 0 0 0 108.1 21.4 Q 113.05 23.05 115 25.05 A 6.799 6.799 0 0 1 116.942 29.673 A 8.947 8.947 0 0 1 116.95 30.05 A 6.937 6.937 0 0 1 116.419 32.808 Q 115.725 34.428 114.125 35.575 Q 111.3 37.6 106.55 37.6 A 19.995 19.995 0 0 1 103.619 37.395 A 15.474 15.474 0 0 1 101.225 36.85 Q 99.018 36.153 97.524 35.068 A 9.114 9.114 0 0 1 97.3 34.9 Z M 302.65 13.6 L 302.65 0 L 307.15 0 L 307.15 30.7 Q 307.15 32.6 308.075 33.175 Q 309 33.75 310.1 33.75 L 309.15 37.25 A 8.927 8.927 0 0 1 307.021 37.016 Q 304.14 36.307 303.35 33.45 Q 302.266 34.977 300.333 36.262 A 16.124 16.124 0 0 1 300.275 36.3 A 7.569 7.569 0 0 1 297.769 37.342 Q 296.636 37.6 295.3 37.6 Q 292.1 37.6 289.45 35.95 A 11.346 11.346 0 0 1 285.681 32.054 A 13.811 13.811 0 0 1 285.25 31.275 A 13.766 13.766 0 0 1 283.956 27.304 A 18.61 18.61 0 0 1 283.7 24.15 A 16.97 16.97 0 0 1 284.145 20.193 A 13.981 13.981 0 0 1 285.275 17.1 Q 286.85 14 289.475 12.2 Q 292.1 10.4 295.25 10.4 A 10.821 10.821 0 0 1 297.386 10.601 A 7.971 7.971 0 0 1 299.725 11.45 Q 301.161 12.254 302.112 13.087 A 8.295 8.295 0 0 1 302.65 13.6 Z M 363.15 13.6 L 363.15 0 L 367.65 0 L 367.65 30.7 Q 367.65 32.6 368.575 33.175 Q 369.5 33.75 370.6 33.75 L 369.65 37.25 A 8.927 8.927 0 0 1 367.521 37.016 Q 364.64 36.307 363.85 33.45 Q 362.766 34.977 360.833 36.262 A 16.124 16.124 0 0 1 360.775 36.3 A 7.569 7.569 0 0 1 358.269 37.342 Q 357.136 37.6 355.8 37.6 Q 352.6 37.6 349.95 35.95 A 11.346 11.346 0 0 1 346.181 32.054 A 13.811 13.811 0 0 1 345.75 31.275 A 13.766 13.766 0 0 1 344.456 27.304 A 18.61 18.61 0 0 1 344.2 24.15 A 16.97 16.97 0 0 1 344.645 20.193 A 13.981 13.981 0 0 1 345.775 17.1 Q 347.35 14 349.975 12.2 Q 352.6 10.4 355.75 10.4 A 10.821 10.821 0 0 1 357.886 10.601 A 7.971 7.971 0 0 1 360.225 11.45 Q 361.661 12.254 362.612 13.087 A 8.295 8.295 0 0 1 363.15 13.6 Z M 187.4 25.85 L 169.2 25.85 A 12.044 12.044 0 0 0 169.77 28.362 Q 170.364 30.06 171.471 31.262 A 7.49 7.49 0 0 0 171.75 31.55 A 7.072 7.072 0 0 0 175.562 33.455 A 10.011 10.011 0 0 0 177.3 33.6 A 18.365 18.365 0 0 0 179.437 33.481 A 13.788 13.788 0 0 0 181.35 33.125 Q 183.15 32.65 184.8 31.9 L 185.85 35.75 A 20.385 20.385 0 0 1 183.683 36.563 A 25.932 25.932 0 0 1 181.8 37.075 A 19.457 19.457 0 0 1 179.254 37.485 A 26.013 26.013 0 0 1 176.75 37.6 A 14.159 14.159 0 0 1 172.877 37.097 A 10.554 10.554 0 0 1 167.875 34.025 Q 164.971 30.855 164.642 25.424 A 23.562 23.562 0 0 1 164.6 24 A 17.679 17.679 0 0 1 165.016 20.089 A 14.42 14.42 0 0 1 166.075 17.025 A 12.321 12.321 0 0 1 168.583 13.484 A 11.444 11.444 0 0 1 170.2 12.175 A 10.524 10.524 0 0 1 175.33 10.439 A 13.103 13.103 0 0 1 176.35 10.4 A 14.277 14.277 0 0 1 179.085 10.648 Q 180.757 10.974 182.092 11.73 A 8.606 8.606 0 0 1 182.575 12.025 Q 185.05 13.65 186.3 16.4 A 14.093 14.093 0 0 1 187.513 21.332 A 16.717 16.717 0 0 1 187.55 22.45 A 37.602 37.602 0 0 1 187.405 25.798 A 34.535 34.535 0 0 1 187.4 25.85 Z M 474.85 25.85 L 456.65 25.85 A 12.044 12.044 0 0 0 457.22 28.362 Q 457.814 30.06 458.921 31.262 A 7.49 7.49 0 0 0 459.2 31.55 A 7.072 7.072 0 0 0 463.012 33.455 A 10.011 10.011 0 0 0 464.75 33.6 A 18.365 18.365 0 0 0 466.887 33.481 A 13.788 13.788 0 0 0 468.8 33.125 Q 470.6 32.65 472.25 31.9 L 473.3 35.75 A 20.385 20.385 0 0 1 471.133 36.563 A 25.932 25.932 0 0 1 469.25 37.075 A 19.457 19.457 0 0 1 466.704 37.485 A 26.013 26.013 0 0 1 464.2 37.6 A 14.159 14.159 0 0 1 460.327 37.097 A 10.554 10.554 0 0 1 455.325 34.025 Q 452.421 30.855 452.092 25.424 A 23.562 23.562 0 0 1 452.05 24 A 17.679 17.679 0 0 1 452.466 20.089 A 14.42 14.42 0 0 1 453.525 17.025 A 12.321 12.321 0 0 1 456.033 13.484 A 11.444 11.444 0 0 1 457.65 12.175 A 10.524 10.524 0 0 1 462.78 10.439 A 13.103 13.103 0 0 1 463.8 10.4 A 14.277 14.277 0 0 1 466.535 10.648 Q 468.207 10.974 469.542 11.73 A 8.606 8.606 0 0 1 470.025 12.025 Q 472.5 13.65 473.75 16.4 A 14.093 14.093 0 0 1 474.963 21.332 A 16.717 16.717 0 0 1 475 22.45 A 37.602 37.602 0 0 1 474.855 25.798 A 34.535 34.535 0 0 1 474.85 25.85 Z M 435.95 28.05 L 435.95 15.85 L 431.45 15.85 L 431.45 11.95 L 436.05 11.95 L 437 3.75 L 440.45 3.75 L 440.45 11.95 L 447.65 11.95 L 447.65 15.85 L 440.45 15.85 L 440.45 28.4 A 10.779 10.779 0 0 0 440.534 29.798 Q 440.771 31.601 441.675 32.45 Q 442.9 33.6 444.6 33.6 Q 445.85 33.6 446.975 33.2 A 12.866 12.866 0 0 0 448.564 32.516 A 11.384 11.384 0 0 0 449.05 32.25 L 450.3 35.85 A 9.273 9.273 0 0 1 449.491 36.278 Q 448.689 36.657 447.6 37.025 Q 445.9 37.6 444.05 37.6 A 9.163 9.163 0 0 1 441.459 37.252 A 6.967 6.967 0 0 1 438.125 35.125 Q 435.95 32.65 435.95 28.05 Z M 333.4 13.1 L 333.4 11 L 337.5 11 L 337.5 30.7 Q 337.5 32.6 338.425 33.175 Q 339.35 33.75 340.45 33.75 L 339.5 37.25 A 8.861 8.861 0 0 1 337.368 37.014 Q 334.454 36.29 333.7 33.35 A 10.654 10.654 0 0 1 332.145 35.063 A 14.249 14.249 0 0 1 330.575 36.275 A 7.464 7.464 0 0 1 328.098 37.327 Q 326.935 37.6 325.55 37.6 Q 322.3 37.6 319.65 35.95 A 11.473 11.473 0 0 1 315.943 32.187 A 13.961 13.961 0 0 1 315.425 31.275 A 13.614 13.614 0 0 1 314.11 27.304 A 18.322 18.322 0 0 1 313.85 24.15 A 16.571 16.571 0 0 1 314.348 20.016 A 13.984 13.984 0 0 1 315.425 17.15 Q 317 14.05 319.775 12.225 A 11.149 11.149 0 0 1 325.372 10.422 A 13.694 13.694 0 0 1 326.15 10.4 A 11.292 11.292 0 0 1 328.547 10.645 A 9.352 9.352 0 0 1 330.225 11.175 A 13.001 13.001 0 0 1 332.368 12.322 A 11.052 11.052 0 0 1 333.4 13.1 Z M 546.5 13.1 L 546.5 11 L 550.6 11 L 550.6 30.7 Q 550.6 32.6 551.525 33.175 Q 552.45 33.75 553.55 33.75 L 552.6 37.25 A 8.861 8.861 0 0 1 550.468 37.014 Q 547.554 36.29 546.8 33.35 A 10.654 10.654 0 0 1 545.245 35.063 A 14.249 14.249 0 0 1 543.675 36.275 A 7.464 7.464 0 0 1 541.198 37.327 Q 540.035 37.6 538.65 37.6 Q 535.4 37.6 532.75 35.95 A 11.473 11.473 0 0 1 529.043 32.187 A 13.961 13.961 0 0 1 528.525 31.275 A 13.614 13.614 0 0 1 527.21 27.304 A 18.322 18.322 0 0 1 526.95 24.15 A 16.571 16.571 0 0 1 527.448 20.016 A 13.984 13.984 0 0 1 528.525 17.15 Q 530.1 14.05 532.875 12.225 A 11.149 11.149 0 0 1 538.472 10.422 A 13.694 13.694 0 0 1 539.25 10.4 A 11.292 11.292 0 0 1 541.647 10.645 A 9.352 9.352 0 0 1 543.325 11.175 A 13.001 13.001 0 0 1 545.468 12.322 A 11.052 11.052 0 0 1 546.5 13.1 Z M 559.3 28.85 L 559.3 0 L 563.8 0 L 563.8 28.4 Q 563.8 31.1 564.925 32.4 A 3.682 3.682 0 0 0 567.217 33.638 A 5.362 5.362 0 0 0 568.05 33.7 Q 569 33.7 569.925 33.475 A 11.096 11.096 0 0 0 570.657 33.272 Q 571.007 33.161 571.306 33.035 A 5.971 5.971 0 0 0 571.5 32.95 L 572.6 36.6 A 9.075 9.075 0 0 1 571.799 36.908 Q 571.401 37.042 570.944 37.161 A 17.489 17.489 0 0 1 570.375 37.3 A 11.908 11.908 0 0 1 568.797 37.543 A 15.257 15.257 0 0 1 567.45 37.6 A 10.431 10.431 0 0 1 565.005 37.323 A 8.772 8.772 0 0 1 563.3 36.725 A 6.341 6.341 0 0 1 560.638 34.342 A 7.928 7.928 0 0 1 560.375 33.9 Q 559.508 32.327 559.34 30.006 A 16.053 16.053 0 0 1 559.3 28.85 Z M 41.4 37 L 36.9 37 L 36.9 11 L 41.25 11 L 41.25 16.65 Q 41.9 15 43 13.575 Q 44.1 12.15 45.75 11.275 Q 47.4 10.4 49.6 10.4 Q 50.35 10.4 51.1 10.475 A 9.486 9.486 0 0 1 51.627 10.542 Q 51.877 10.581 52.091 10.631 A 4.408 4.408 0 0 1 52.35 10.7 L 51 15.35 A 4.881 4.881 0 0 0 49.927 15.044 Q 49.38 14.95 48.75 14.95 A 6.479 6.479 0 0 0 45.435 15.873 A 7.804 7.804 0 0 0 45.225 16 A 6.701 6.701 0 0 0 43.489 17.598 Q 42.937 18.311 42.489 19.221 A 11.373 11.373 0 0 0 42.475 19.25 Q 41.594 21.054 41.435 23.664 A 19.545 19.545 0 0 0 41.4 24.85 L 41.4 37 Z M 257.5 37 L 253 37 L 253 11 L 257.35 11 L 257.35 16.65 Q 258 15 259.1 13.575 Q 260.2 12.15 261.85 11.275 Q 263.5 10.4 265.7 10.4 Q 266.45 10.4 267.2 10.475 A 9.486 9.486 0 0 1 267.727 10.542 Q 267.977 10.581 268.191 10.631 A 4.408 4.408 0 0 1 268.45 10.7 L 267.1 15.35 A 4.881 4.881 0 0 0 266.027 15.044 Q 265.48 14.95 264.85 14.95 A 6.479 6.479 0 0 0 261.535 15.873 A 7.804 7.804 0 0 0 261.325 16 A 6.701 6.701 0 0 0 259.589 17.598 Q 259.037 18.311 258.589 19.221 A 11.373 11.373 0 0 0 258.575 19.25 Q 257.694 21.054 257.535 23.664 A 19.545 19.545 0 0 0 257.5 24.85 L 257.5 37 Z M 514.75 37 L 510.25 37 L 510.25 11 L 514.6 11 L 514.6 16.65 Q 515.25 15 516.35 13.575 Q 517.45 12.15 519.1 11.275 Q 520.75 10.4 522.95 10.4 Q 523.7 10.4 524.45 10.475 A 9.486 9.486 0 0 1 524.977 10.542 Q 525.227 10.581 525.441 10.631 A 4.408 4.408 0 0 1 525.7 10.7 L 524.35 15.35 A 4.881 4.881 0 0 0 523.277 15.044 Q 522.73 14.95 522.1 14.95 A 6.479 6.479 0 0 0 518.785 15.873 A 7.804 7.804 0 0 0 518.575 16 A 6.701 6.701 0 0 0 516.839 17.598 Q 516.287 18.311 515.839 19.221 A 11.373 11.373 0 0 0 515.825 19.25 Q 514.944 21.054 514.785 23.664 A 19.545 19.545 0 0 0 514.75 24.85 L 514.75 37 Z M 396.85 37 L 392.1 37 L 392.1 2 L 396.85 2 L 396.85 37 Z M 61.35 37 L 56.85 37 L 56.85 11 L 61.35 11 L 61.35 37 Z M 277.45 37 L 272.95 37 L 272.95 11 L 277.45 11 L 277.45 37 Z M 333 30.35 L 333 16.4 Q 331.65 15.45 330.025 14.875 Q 328.4 14.3 326.6 14.3 Q 324.2 14.3 322.375 15.525 A 8.15 8.15 0 0 0 319.865 18.237 A 9.981 9.981 0 0 0 319.5 18.925 Q 318.45 21.1 318.45 24 Q 318.45 26.8 319.5 28.975 A 8.801 8.801 0 0 0 321.053 31.248 A 7.848 7.848 0 0 0 322.4 32.375 Q 324.25 33.6 326.55 33.6 Q 328.45 33.6 330.15 32.675 Q 331.85 31.75 333 30.35 Z M 546.1 30.35 L 546.1 16.4 Q 544.75 15.45 543.125 14.875 Q 541.5 14.3 539.7 14.3 Q 537.3 14.3 535.475 15.525 A 8.15 8.15 0 0 0 532.965 18.237 A 9.981 9.981 0 0 0 532.6 18.925 Q 531.55 21.1 531.55 24 Q 531.55 26.8 532.6 28.975 A 8.801 8.801 0 0 0 534.153 31.248 A 7.848 7.848 0 0 0 535.5 32.375 Q 537.35 33.6 539.65 33.6 Q 541.55 33.6 543.25 32.675 Q 544.95 31.75 546.1 30.35 Z M 302.65 30.45 L 302.65 17.55 A 7.924 7.924 0 0 0 301.595 16.463 Q 300.903 15.87 300 15.325 Q 298.3 14.3 296.25 14.3 A 7.473 7.473 0 0 0 293.772 14.7 A 6.692 6.692 0 0 0 292.05 15.6 Q 290.25 16.9 289.275 19.075 A 11.095 11.095 0 0 0 288.405 22.257 A 14.057 14.057 0 0 0 288.3 24 A 12.378 12.378 0 0 0 288.596 26.76 A 10.164 10.164 0 0 0 289.35 28.925 A 9.102 9.102 0 0 0 290.87 31.182 A 8.061 8.061 0 0 0 292.225 32.35 Q 294.05 33.6 296.3 33.6 Q 298.15 33.6 299.825 32.725 Q 301.5 31.85 302.65 30.45 Z M 363.15 30.45 L 363.15 17.55 A 7.924 7.924 0 0 0 362.095 16.463 Q 361.403 15.87 360.5 15.325 Q 358.8 14.3 356.75 14.3 A 7.473 7.473 0 0 0 354.272 14.7 A 6.692 6.692 0 0 0 352.55 15.6 Q 350.75 16.9 349.775 19.075 A 11.095 11.095 0 0 0 348.905 22.257 A 14.057 14.057 0 0 0 348.8 24 A 12.378 12.378 0 0 0 349.096 26.76 A 10.164 10.164 0 0 0 349.85 28.925 A 9.102 9.102 0 0 0 351.37 31.182 A 8.061 8.061 0 0 0 352.725 32.35 Q 354.55 33.6 356.8 33.6 Q 358.65 33.6 360.325 32.725 Q 362 31.85 363.15 30.45 Z M 210.55 30 L 210.55 16.4 Q 209.467 15.612 207.948 14.97 A 17.984 17.984 0 0 0 207.9 14.95 A 8.124 8.124 0 0 0 205.998 14.424 A 11.067 11.067 0 0 0 204.3 14.3 Q 202.25 14.3 200.45 15.4 A 7.867 7.867 0 0 0 198.049 17.714 A 9.808 9.808 0 0 0 197.525 18.575 A 8.9 8.9 0 0 0 196.647 21.041 Q 196.4 22.244 196.4 23.65 A 12.16 12.16 0 0 0 196.639 26.118 A 9.156 9.156 0 0 0 197.525 28.6 A 9.288 9.288 0 0 0 198.981 30.637 A 7.901 7.901 0 0 0 200.45 31.85 Q 202.25 33 204.35 33 A 7.638 7.638 0 0 0 206.639 32.666 A 6.803 6.803 0 0 0 207.95 32.1 A 10.427 10.427 0 0 0 209.44 31.092 A 8.155 8.155 0 0 0 210.55 30 Z M 498 30 L 498 16.4 Q 496.917 15.612 495.398 14.97 A 17.984 17.984 0 0 0 495.35 14.95 A 8.124 8.124 0 0 0 493.448 14.424 A 11.067 11.067 0 0 0 491.75 14.3 Q 489.7 14.3 487.9 15.4 A 7.867 7.867 0 0 0 485.499 17.714 A 9.808 9.808 0 0 0 484.975 18.575 A 8.9 8.9 0 0 0 484.097 21.041 Q 483.85 22.244 483.85 23.65 A 12.16 12.16 0 0 0 484.089 26.118 A 9.156 9.156 0 0 0 484.975 28.6 A 9.288 9.288 0 0 0 486.431 30.637 A 7.901 7.901 0 0 0 487.9 31.85 Q 489.7 33 491.8 33 A 7.638 7.638 0 0 0 494.089 32.666 A 6.803 6.803 0 0 0 495.4 32.1 A 10.427 10.427 0 0 0 496.89 31.092 A 8.155 8.155 0 0 0 498 30 Z M 16.05 6.7 L 9.45 23.5 L 22.6 23.5 L 16.05 6.7 Z M 169.15 22.2 L 183.4 22.2 Q 183.4 18.4 181.5 16.35 A 6.244 6.244 0 0 0 178.02 14.462 A 9.198 9.198 0 0 0 176.25 14.3 A 6.79 6.79 0 0 0 173.694 14.767 A 6.262 6.262 0 0 0 171.45 16.325 Q 169.869 18.01 169.326 20.96 A 16.01 16.01 0 0 0 169.15 22.2 Z M 456.6 22.2 L 470.85 22.2 Q 470.85 18.4 468.95 16.35 A 6.244 6.244 0 0 0 465.47 14.462 A 9.198 9.198 0 0 0 463.7 14.3 A 6.79 6.79 0 0 0 461.144 14.767 A 6.262 6.262 0 0 0 458.9 16.325 Q 457.319 18.01 456.776 20.96 A 16.01 16.01 0 0 0 456.6 22.2 Z M 59.1 6.55 Q 57.8 6.55 56.875 5.6 A 3.322 3.322 0 0 1 56.196 4.609 A 2.996 2.996 0 0 1 55.95 3.4 A 3.994 3.994 0 0 1 56.065 2.416 A 2.794 2.794 0 0 1 56.8 1.1 A 2.831 2.831 0 0 1 58.272 0.329 A 4.132 4.132 0 0 1 59.1 0.25 A 3.029 3.029 0 0 1 61.296 1.146 A 3.7 3.7 0 0 1 61.325 1.175 A 3.03 3.03 0 0 1 62.25 3.359 A 3.627 3.627 0 0 1 62.25 3.4 Q 62.25 4.8 61.4 5.675 A 2.824 2.824 0 0 1 59.848 6.485 A 4.088 4.088 0 0 1 59.1 6.55 Z M 275.2 6.55 Q 273.9 6.55 272.975 5.6 A 3.322 3.322 0 0 1 272.296 4.609 A 2.996 2.996 0 0 1 272.05 3.4 A 3.994 3.994 0 0 1 272.165 2.416 A 2.794 2.794 0 0 1 272.9 1.1 A 2.831 2.831 0 0 1 274.372 0.329 A 4.132 4.132 0 0 1 275.2 0.25 A 3.029 3.029 0 0 1 277.396 1.146 A 3.7 3.7 0 0 1 277.425 1.175 A 3.03 3.03 0 0 1 278.35 3.359 A 3.627 3.627 0 0 1 278.35 3.4 Q 278.35 4.8 277.5 5.675 A 2.824 2.824 0 0 1 275.948 6.485 A 4.088 4.088 0 0 1 275.2 6.55 Z" vector-effect="non-scaling-stroke"/></g></svg>